<svg width="20" height="20" viewBox="0 0 20 20" fill="none" xmlns="http://www.w3.org/2000/svg">
<path fill-rule="evenodd" clip-rule="evenodd" d="M1.04406 0.039122C0.637657 0.118966 0.283672 0.396036 0.107344 0.772208C0.0223047 0.953614 0.00378912 1.04912 0.00378912 1.30643C0.003711 1.91088 -0.260742 1.61072 4.20129 6.07096L8.14793 10.016L4.16957 14.0006C0.936524 17.2388 0.174063 18.0219 0.0997267 18.1806C-0.0307421 18.4593 -0.0336328 18.9581 0.0936329 19.2353C0.207344 19.483 0.455938 19.7405 0.706875 19.8703C0.989844 20.0166 1.43926 20.037 1.76156 19.9181C1.98809 19.8346 2.12953 19.6982 5.99016 15.8426L9.98442 11.8536L13.9589 15.8222C17.1513 19.0099 17.9719 19.8093 18.1288 19.8842C18.2927 19.9625 18.3838 19.9774 18.6952 19.9769C19.0202 19.9764 19.0907 19.9635 19.2631 19.873C19.5024 19.7474 19.7664 19.4692 19.8802 19.2226C20.002 18.9587 19.9964 18.4533 19.8687 18.1806C19.7944 18.0219 19.0319 17.2388 15.7989 14.0006L11.8205 10.016L15.7672 6.07096C20.2292 1.61072 19.9647 1.91088 19.9647 1.30643C19.9647 1.05053 19.9461 0.953731 19.8633 0.778263C19.547 0.10752 18.7538 -0.168964 18.0909 0.160528C17.9877 0.211817 16.5631 1.60783 13.9588 4.20943L9.98422 8.1801L6.00961 4.20943C3.40539 1.60783 1.9807 0.211817 1.8775 0.160528C1.74531 0.0948251 1.31113 -0.0131046 1.2368 0.00130947C1.22465 0.00365322 1.13789 0.0206454 1.04406 0.039122Z" fill="white"/>
</svg>
