<svg width="217" height="54" viewBox="0 0 217 54" fill="none" xmlns="http://www.w3.org/2000/svg">
<path d="M68.5121 34.28C71.5521 34.28 73.7121 32.68 73.7121 29.98C73.7121 27.02 71.3321 26.28 69.2121 25.64C67.0321 24.98 66.6921 24.54 66.6921 23.9C66.6921 23.34 67.1921 22.84 68.1921 22.84C69.4721 22.84 70.1321 23.46 70.6121 24.46L73.3121 22.88C72.2921 20.82 70.4921 19.72 68.1921 19.72C65.7721 19.72 63.4921 21.28 63.4921 23.98C63.4921 26.66 65.5321 27.66 67.6121 28.24C69.7121 28.82 70.5121 29.16 70.5121 30.02C70.5121 30.56 70.1321 31.16 68.6121 31.16C67.0321 31.16 66.1721 30.38 65.6721 29.22L62.9121 30.82C63.6921 32.88 65.5721 34.28 68.5121 34.28ZM82.8137 20V25.36H78.4137V20H75.2137V34H78.4137V28.44H82.8137V34H86.0137V20H82.8137ZM95.0968 34.28C99.1168 34.28 102.377 31.12 102.377 27C102.377 22.88 99.1168 19.72 95.0968 19.72C91.0768 19.72 87.8168 22.88 87.8168 27C87.8168 31.12 91.0768 34.28 95.0968 34.28ZM95.0968 31.16C92.8168 31.16 91.0168 29.5 91.0168 27C91.0168 24.5 92.8168 22.84 95.0968 22.84C97.3768 22.84 99.1768 24.5 99.1768 27C99.1768 29.5 97.3768 31.16 95.0968 31.16ZM109.479 20H104.179V34H107.379V29.6H109.479C112.239 29.6 114.379 27.46 114.379 24.8C114.379 22.14 112.239 20 109.479 20ZM109.479 26.6H107.379V23H109.479C110.459 23 111.179 23.78 111.179 24.8C111.179 25.82 110.459 26.6 109.479 26.6ZM129.875 34H133.375L128.615 20H124.535L119.775 34H123.275L123.975 31.8H129.175L129.875 34ZM124.935 28.8L126.575 23.66L128.215 28.8H124.935ZM137.769 30.92V20H134.569V34H142.769V30.92H137.769ZM147.379 30.92V20H144.179V34H152.379V30.92H147.379Z" fill="white"/>
<line x1="1" x2="1" y2="54" stroke="white" stroke-width="2"/>
<line x1="216" x2="216" y2="54" stroke="white" stroke-width="2"/>
</svg>
