<svg width="217" height="54" viewBox="0 0 217 54" fill="none" xmlns="http://www.w3.org/2000/svg">
<path d="M75.5629 34.28C78.6029 34.28 80.7629 32.68 80.7629 29.98C80.7629 27.02 78.3829 26.28 76.2629 25.64C74.0829 24.98 73.7429 24.54 73.7429 23.9C73.7429 23.34 74.2429 22.84 75.2429 22.84C76.5229 22.84 77.1829 23.46 77.6629 24.46L80.3629 22.88C79.3429 20.82 77.5429 19.72 75.2429 19.72C72.8229 19.72 70.5429 21.28 70.5429 23.98C70.5429 26.66 72.5829 27.66 74.6629 28.24C76.7629 28.82 77.5629 29.16 77.5629 30.02C77.5629 30.56 77.1829 31.16 75.6629 31.16C74.0829 31.16 73.2229 30.38 72.7229 29.22L69.9629 30.82C70.7429 32.88 72.6229 34.28 75.5629 34.28ZM82.2645 20V34H85.4645V20H82.2645ZM101.73 26.2H94.7099V29H98.4499C97.9499 30.34 96.7299 31.16 94.8699 31.16C92.1499 31.16 90.4699 29.42 90.4699 27.04C90.4699 24.58 92.2299 22.84 94.5899 22.84C96.1699 22.84 97.4299 23.56 98.0099 24.48L100.73 22.92C99.5499 21.04 97.2899 19.72 94.6099 19.72C90.4899 19.72 87.2699 22.96 87.2699 27.02C87.2699 31.04 90.4299 34.28 94.8299 34.28C98.7499 34.28 101.73 31.68 101.73 27.4V26.2ZM111.334 20V27.6L105.934 20H103.534V34H106.734V26.4L112.134 34H114.534V20H111.334ZM127.232 34.28C130.312 34.28 132.632 32.48 132.632 29.48V20H129.432V29.2C129.432 30.26 128.932 31.16 127.232 31.16C125.532 31.16 125.032 30.26 125.032 29.2V20H121.832V29.48C121.832 32.48 124.152 34.28 127.232 34.28ZM140.24 20H134.94V34H138.14V29.6H140.24C143 29.6 145.14 27.46 145.14 24.8C145.14 22.14 143 20 140.24 20ZM140.24 26.6H138.14V23H140.24C141.22 23 141.94 23.78 141.94 24.8C141.94 25.82 141.22 26.6 140.24 26.6Z" fill="black"/>
<line x1="1" x2="1" y2="54" stroke="black" stroke-width="2"/>
<line x1="216" x2="216" y2="54" stroke="black" stroke-width="2"/>
</svg>
