<svg width="293" height="85" viewBox="0 0 293 85" fill="none" xmlns="http://www.w3.org/2000/svg">
<path d="M22.5 0L28.8481 13.7626L43.8988 15.5471L32.7714 25.8374L35.7252 40.7029L22.5 33.3L9.27483 40.7029L12.2286 25.8374L1.10123 15.5471L16.1519 13.7626L22.5 0Z" fill="#C84B31"/>
<path d="M83 18L90.0534 33.2918L106.776 35.2746L94.4127 46.7082L97.6946 63.2254L83 55L68.3054 63.2254L71.5873 46.7082L59.2236 35.2746L75.9466 33.2918L83 18Z" fill="#C84B31"/>
<path d="M149 27L157.182 44.7385L176.581 47.0385L162.239 60.3015L166.046 79.4615L149 69.92L131.954 79.4615L135.761 60.3015L121.419 47.0385L140.818 44.7385L149 27Z" fill="#C84B31"/>
<path d="M215 18L222.053 33.2918L238.776 35.2746L226.413 46.7082L229.695 63.2254L215 55L200.305 63.2254L203.587 46.7082L191.224 35.2746L207.947 33.2918L215 18Z" fill="#C84B31"/>
<path d="M270.5 0L276.848 13.7626L291.899 15.5471L280.771 25.8374L283.725 40.7029L270.5 33.3L257.275 40.7029L260.229 25.8374L249.101 15.5471L264.152 13.7626L270.5 0Z" fill="#C84B31"/>
</svg>
