<svg width="143" height="23" viewBox="0 0 143 23" fill="none" xmlns="http://www.w3.org/2000/svg">
<path d="M11.5 0L14.0819 7.9463H22.4371L15.6776 12.8574L18.2595 20.8037L11.5 15.8926L4.74047 20.8037L7.32238 12.8574L0.56285 7.9463H8.91809L11.5 0Z" fill="#FF0F00"/>
<path d="M41.5 0L44.0819 7.9463H52.4371L45.6776 12.8574L48.2595 20.8037L41.5 15.8926L34.7405 20.8037L37.3224 12.8574L30.5628 7.9463H38.9181L41.5 0Z" fill="#FF0F00"/>
<path d="M71.5 0L74.0819 7.9463H82.4371L75.6776 12.8574L78.2595 20.8037L71.5 15.8926L64.7405 20.8037L67.3224 12.8574L60.5628 7.9463H68.9181L71.5 0Z" fill="#FF0F00"/>
<path d="M101.5 0L104.082 7.9463H112.437L105.678 12.8574L108.26 20.8037L101.5 15.8926L94.7405 20.8037L97.3224 12.8574L90.5628 7.9463H98.9181L101.5 0Z" fill="#FF0F00"/>
<path d="M131.5 0L134.082 7.9463H142.437L135.678 12.8574L138.26 20.8037L131.5 15.8926L124.74 20.8037L127.322 12.8574L120.563 7.9463H128.918L131.5 0Z" fill="#FF0F00"/>
</svg>
